<svg width="24" height="24" viewBox="0 0 24 24" fill="none" xmlns="http://www.w3.org/2000/svg">
<circle cx="12.0001" cy="12" r="9" stroke="#333333" stroke-width="1.5" stroke-linecap="round" stroke-linejoin="round"/>
<path d="M4 15L20 15" stroke="#333333" stroke-width="1.5" stroke-linecap="round" stroke-linejoin="round"/>
<path d="M4 9L20 9" stroke="#333333" stroke-width="1.5" stroke-linecap="round" stroke-linejoin="round"/>
<path d="M12.0001 20.8181L11.4644 21.343C11.6055 21.487 11.7985 21.5681 12.0001 21.5681C12.2016 21.5681 12.3947 21.487 12.5358 21.343L12.0001 20.8181ZM12.0001 3.18176L12.5358 2.65684C12.3947 2.51288 12.2016 2.43176 12.0001 2.43176C11.7985 2.43176 11.6055 2.51288 11.4644 2.65684L12.0001 3.18176ZM14.8501 11.9999C14.8501 15.229 13.5595 18.1551 11.4644 20.2932L12.5358 21.343C14.8945 18.936 16.3501 15.6372 16.3501 11.9999H14.8501ZM11.4644 3.70669C13.5595 5.84475 14.8501 8.77088 14.8501 11.9999H16.3501C16.3501 8.36269 14.8945 5.06391 12.5358 2.65684L11.4644 3.70669ZM9.15009 11.9999C9.15009 8.77088 10.4406 5.84475 12.5358 3.70669L11.4644 2.65684C9.10566 5.06391 7.65009 8.36269 7.65009 11.9999H9.15009ZM12.5358 20.2932C10.4406 18.1551 9.15009 15.229 9.15009 11.9999H7.65009C7.65009 15.6372 9.10567 18.936 11.4644 21.343L12.5358 20.2932Z" fill="#333333"/>
</svg>
