<svg width="32" height="32" viewBox="0 0 32 32" fill="none" xmlns="http://www.w3.org/2000/svg">
<circle cx="16.0001" cy="16" r="12" stroke="#666666" stroke-width="2" stroke-linecap="round" stroke-linejoin="round"/>
<path d="M5.33334 20L26.6667 20" stroke="#666666" stroke-width="2" stroke-linecap="round" stroke-linejoin="round"/>
<path d="M5.33334 12L26.6667 12" stroke="#666666" stroke-width="2" stroke-linecap="round" stroke-linejoin="round"/>
<path d="M16.0001 27.7575L15.2859 28.4574C15.474 28.6493 15.7314 28.7575 16.0001 28.7575C16.2689 28.7575 16.5263 28.6493 16.7144 28.4574L16.0001 27.7575ZM16.0001 4.24236L16.7144 3.54246C16.5263 3.35052 16.2689 3.24236 16.0001 3.24236C15.7314 3.24236 15.474 3.35052 15.2859 3.54246L16.0001 4.24236ZM19.8001 15.9999C19.8001 20.3053 18.0794 24.2068 15.2859 27.0576L16.7144 28.4574C19.8594 25.248 21.8001 20.8496 21.8001 15.9999H19.8001ZM15.2859 4.94226C18.0794 7.79301 19.8001 11.6945 19.8001 15.9999H21.8001C21.8001 11.1503 19.8594 6.75189 16.7144 3.54246L15.2859 4.94226ZM12.2001 15.9999C12.2001 11.6945 13.9209 7.79301 16.7144 4.94226L15.2859 3.54246C12.1409 6.75189 10.2001 11.1503 10.2001 15.9999H12.2001ZM16.7144 27.0576C13.9209 24.2068 12.2001 20.3053 12.2001 15.9999H10.2001C10.2001 20.8496 12.1409 25.248 15.2859 28.4574L16.7144 27.0576Z" fill="#666666"/>
</svg>
